<svg version="1.2" xmlns="http://www.w3.org/2000/svg" viewBox="0 0 267 267" width="267" height="267">
	<title>Roblox_player_icon_black</title>
	<style>
		.s0 { fill: none } 
		.s1 { fill: none;stroke: #000000;stroke-width: .4 } 
		.s2 { fill: #ffffff } 
	</style>
	<g id="backgroundrect">
		<path fill-rule="evenodd" class="s0" d="m-235.5 198.1h100v100h-100z"/>
	</g>
	<g id="svg_2">
		<path fill-rule="evenodd" class="s1" d="m28.1 400.7l-4.9-8.2 1.1-0.3 0.8-0.4h1.1 1.9 1.4 1.5l0.8 0.4 1.4 0.3h0.8l0.7 0.4 1.1 1.1 1.1 0.8 0.8 0.7 0.7 1.1 0.8 1.1 0.7 0.8 0.4 1.1 0.3 1.1 4.9 17.4 0.7 3 1.5 6.2 0.7 2.6 0.4 1.2 0.4 1.1 0.7 1.4v0.8h0.4v0.4"/>
	</g>
	<g>
		<path class="s2" d="m65.4 15.6l-49.8 186.1 186.2 49.9 49.7-186.2zm49.2 85.5l51.9 13.9-13.9 52-52-14z"/>
	</g>
</svg>